<?xml version="1.0" encoding="UTF-8" standalone="no"?>
<!DOCTYPE svg PUBLIC "-//W3C//DTD SVG 1.1//EN"
 "http://www.w3.org/Graphics/SVG/1.1/DTD/svg11.dtd">
<!-- Generated by graphviz version 2.49.0 (0)
 -->
<!-- Title: snakemake_dag Pages: 1 -->
<svg width="341pt" height="548pt"
 viewBox="0.00 0.00 340.50 548.00" xmlns="http://www.w3.org/2000/svg" xmlns:xlink="http://www.w3.org/1999/xlink">
<g id="graph0" class="graph" transform="scale(1 1) rotate(0) translate(4 544)">
<title>snakemake_dag</title>
<polygon fill="white" stroke="transparent" points="-4,4 -4,-544 336.5,-544 336.5,4 -4,4"/>
<!-- 0 -->
<g id="node1" class="node">
<title>0</title>
<path fill="none" stroke="#56d89a" stroke-width="2" d="M80,-36C80,-36 50,-36 50,-36 44,-36 38,-30 38,-24 38,-24 38,-12 38,-12 38,-6 44,0 50,0 50,0 80,0 80,0 86,0 92,-6 92,-12 92,-12 92,-24 92,-24 92,-30 86,-36 80,-36"/>
<text text-anchor="middle" x="65" y="-15.5" font-family="sans" font-size="10.00">all</text>
</g>
<!-- 1 -->
<g id="node2" class="node">
<title>1</title>
<path fill="none" stroke="#70d856" stroke-width="2" d="M42,-324C42,-324 12,-324 12,-324 6,-324 0,-318 0,-312 0,-312 0,-300 0,-300 0,-294 6,-288 12,-288 12,-288 42,-288 42,-288 48,-288 54,-294 54,-300 54,-300 54,-312 54,-312 54,-318 48,-324 42,-324"/>
<text text-anchor="middle" x="27" y="-303.5" font-family="sans" font-size="10.00">multiqc</text>
</g>
<!-- 1&#45;&gt;0 -->
<g id="edge1" class="edge">
<title>1&#45;&gt;0</title>
<path fill="none" stroke="grey" stroke-width="2" d="M29.26,-287.97C35.61,-240.19 53.62,-104.62 61.38,-46.27"/>
<polygon fill="grey" stroke="grey" stroke-width="2" points="64.85,-46.68 62.7,-36.31 57.91,-45.76 64.85,-46.68"/>
</g>
<!-- 2 -->
<g id="node3" class="node">
<title>2</title>
<path fill="none" stroke="#56b1d8" stroke-width="2" d="M42,-468C42,-468 12,-468 12,-468 6,-468 0,-462 0,-456 0,-456 0,-444 0,-444 0,-438 6,-432 12,-432 12,-432 42,-432 42,-432 48,-432 54,-438 54,-444 54,-444 54,-456 54,-456 54,-462 48,-468 42,-468"/>
<text text-anchor="middle" x="27" y="-447.5" font-family="sans" font-size="10.00">fastqc</text>
</g>
<!-- 2&#45;&gt;1 -->
<g id="edge3" class="edge">
<title>2&#45;&gt;1</title>
<path fill="none" stroke="grey" stroke-width="2" d="M27,-431.87C27,-407.67 27,-363.21 27,-334.39"/>
<polygon fill="grey" stroke="grey" stroke-width="2" points="30.5,-334.19 27,-324.19 23.5,-334.19 30.5,-334.19"/>
</g>
<!-- 3 -->
<g id="node4" class="node">
<title>3</title>
<path fill="none" stroke="#ced856" stroke-width="2" d="M105,-540C105,-540 45,-540 45,-540 39,-540 33,-534 33,-528 33,-528 33,-516 33,-516 33,-510 39,-504 45,-504 45,-504 105,-504 105,-504 111,-504 117,-510 117,-516 117,-516 117,-528 117,-528 117,-534 111,-540 105,-540"/>
<text text-anchor="middle" x="75" y="-519.5" font-family="sans" font-size="10.00">download_data</text>
</g>
<!-- 3&#45;&gt;2 -->
<g id="edge4" class="edge">
<title>3&#45;&gt;2</title>
<path fill="none" stroke="grey" stroke-width="2" d="M63.13,-503.7C57.5,-495.47 50.65,-485.48 44.43,-476.42"/>
<polygon fill="grey" stroke="grey" stroke-width="2" points="47.27,-474.37 38.73,-468.1 41.5,-478.33 47.27,-474.37"/>
</g>
<!-- 7 -->
<g id="node8" class="node">
<title>7</title>
<path fill="none" stroke="#56d86b" stroke-width="2" d="M164,-468C164,-468 84,-468 84,-468 78,-468 72,-462 72,-456 72,-456 72,-444 72,-444 72,-438 78,-432 84,-432 84,-432 164,-432 164,-432 170,-432 176,-438 176,-444 176,-444 176,-456 176,-456 176,-462 170,-468 164,-468"/>
<text text-anchor="middle" x="124" y="-447.5" font-family="sans" font-size="10.00">qiime2_import_data</text>
</g>
<!-- 3&#45;&gt;7 -->
<g id="edge11" class="edge">
<title>3&#45;&gt;7</title>
<path fill="none" stroke="grey" stroke-width="2" d="M87.11,-503.7C92.87,-495.47 99.86,-485.48 106.21,-476.42"/>
<polygon fill="grey" stroke="grey" stroke-width="2" points="109.16,-478.3 112.03,-468.1 103.42,-474.29 109.16,-478.3"/>
</g>
<!-- 4 -->
<g id="node5" class="node">
<title>4</title>
<path fill="none" stroke="#d8b456" stroke-width="2" d="M166,-108C166,-108 92,-108 92,-108 86,-108 80,-102 80,-96 80,-96 80,-84 80,-84 80,-78 86,-72 92,-72 92,-72 166,-72 166,-72 172,-72 178,-78 178,-84 178,-84 178,-96 178,-96 178,-102 172,-108 166,-108"/>
<text text-anchor="middle" x="129" y="-87.5" font-family="sans" font-size="10.00">phyloseq_analysis</text>
</g>
<!-- 4&#45;&gt;0 -->
<g id="edge2" class="edge">
<title>4&#45;&gt;0</title>
<path fill="none" stroke="grey" stroke-width="2" d="M113.18,-71.7C105.43,-63.22 95.96,-52.86 87.48,-43.58"/>
<polygon fill="grey" stroke="grey" stroke-width="2" points="89.97,-41.12 80.64,-36.1 84.8,-45.85 89.97,-41.12"/>
</g>
<!-- 5 -->
<g id="node6" class="node">
<title>5</title>
<path fill="none" stroke="#9fd856" stroke-width="2" d="M174,-180C174,-180 110,-180 110,-180 104,-180 98,-174 98,-168 98,-168 98,-156 98,-156 98,-150 104,-144 110,-144 110,-144 174,-144 174,-144 180,-144 186,-150 186,-156 186,-156 186,-168 186,-168 186,-174 180,-180 174,-180"/>
<text text-anchor="middle" x="142" y="-159.5" font-family="sans" font-size="10.00">R_AnalysisPrep</text>
</g>
<!-- 5&#45;&gt;4 -->
<g id="edge5" class="edge">
<title>5&#45;&gt;4</title>
<path fill="none" stroke="grey" stroke-width="2" d="M138.79,-143.7C137.35,-135.98 135.63,-126.71 134.04,-118.11"/>
<polygon fill="grey" stroke="grey" stroke-width="2" points="137.44,-117.3 132.18,-108.1 130.56,-118.58 137.44,-117.3"/>
</g>
<!-- 6 -->
<g id="node7" class="node">
<title>6</title>
<path fill="none" stroke="#d88556" stroke-width="2" d="M200.5,-324C200.5,-324 109.5,-324 109.5,-324 103.5,-324 97.5,-318 97.5,-312 97.5,-312 97.5,-300 97.5,-300 97.5,-294 103.5,-288 109.5,-288 109.5,-288 200.5,-288 200.5,-288 206.5,-288 212.5,-294 212.5,-300 212.5,-300 212.5,-312 212.5,-312 212.5,-318 206.5,-324 200.5,-324"/>
<text text-anchor="middle" x="155" y="-303.5" font-family="sans" font-size="10.00">dada2_denoise_ASVs</text>
</g>
<!-- 6&#45;&gt;5 -->
<g id="edge8" class="edge">
<title>6&#45;&gt;5</title>
<path fill="none" stroke="grey" stroke-width="2" d="M119.83,-287.94C106.02,-279.25 91.65,-267.26 84,-252 76.83,-237.7 77.55,-230.64 84,-216 88.99,-204.69 97.71,-194.74 106.9,-186.62"/>
<polygon fill="grey" stroke="grey" stroke-width="2" points="109.17,-189.28 114.66,-180.23 104.72,-183.88 109.17,-189.28"/>
</g>
<!-- 9 -->
<g id="node10" class="node">
<title>9</title>
<path fill="none" stroke="#5682d8" stroke-width="2" d="M205,-252C205,-252 105,-252 105,-252 99,-252 93,-246 93,-240 93,-240 93,-228 93,-228 93,-222 99,-216 105,-216 105,-216 205,-216 205,-216 211,-216 217,-222 217,-228 217,-228 217,-240 217,-240 217,-246 211,-252 205,-252"/>
<text text-anchor="middle" x="155" y="-231.5" font-family="sans" font-size="10.00">taxonomic_classification</text>
</g>
<!-- 6&#45;&gt;9 -->
<g id="edge13" class="edge">
<title>6&#45;&gt;9</title>
<path fill="none" stroke="grey" stroke-width="2" d="M155,-287.7C155,-279.98 155,-270.71 155,-262.11"/>
<polygon fill="grey" stroke="grey" stroke-width="2" points="158.5,-262.1 155,-252.1 151.5,-262.1 158.5,-262.1"/>
</g>
<!-- 10 -->
<g id="node11" class="node">
<title>10</title>
<path fill="none" stroke="#d85656" stroke-width="2" d="M320.5,-252C320.5,-252 247.5,-252 247.5,-252 241.5,-252 235.5,-246 235.5,-240 235.5,-240 235.5,-228 235.5,-228 235.5,-222 241.5,-216 247.5,-216 247.5,-216 320.5,-216 320.5,-216 326.5,-216 332.5,-222 332.5,-228 332.5,-228 332.5,-240 332.5,-240 332.5,-246 326.5,-252 320.5,-252"/>
<text text-anchor="middle" x="284" y="-231.5" font-family="sans" font-size="10.00">qiime2_phylogeny</text>
</g>
<!-- 6&#45;&gt;10 -->
<g id="edge14" class="edge">
<title>6&#45;&gt;10</title>
<path fill="none" stroke="grey" stroke-width="2" d="M186.56,-287.88C203.66,-278.6 224.98,-267.03 243.32,-257.08"/>
<polygon fill="grey" stroke="grey" stroke-width="2" points="245.2,-260.04 252.32,-252.19 241.86,-253.88 245.2,-260.04"/>
</g>
<!-- 7&#45;&gt;6 -->
<g id="edge9" class="edge">
<title>7&#45;&gt;6</title>
<path fill="none" stroke="grey" stroke-width="2" d="M118.12,-431.8C112.81,-413.52 106.96,-384 115,-360 118.35,-350 124.42,-340.38 130.83,-332.14"/>
<polygon fill="grey" stroke="grey" stroke-width="2" points="133.56,-334.33 137.27,-324.4 128.18,-329.85 133.56,-334.33"/>
</g>
<!-- 8 -->
<g id="node9" class="node">
<title>8</title>
<path fill="none" stroke="#56d8c9" stroke-width="2" d="M230,-396C230,-396 136,-396 136,-396 130,-396 124,-390 124,-384 124,-384 124,-372 124,-372 124,-366 130,-360 136,-360 136,-360 230,-360 230,-360 236,-360 242,-366 242,-372 242,-372 242,-384 242,-384 242,-390 236,-396 230,-396"/>
<text text-anchor="middle" x="183" y="-375.5" font-family="sans" font-size="10.00">qiime2_summarize_vis</text>
</g>
<!-- 7&#45;&gt;8 -->
<g id="edge12" class="edge">
<title>7&#45;&gt;8</title>
<path fill="none" stroke="grey" stroke-width="2" d="M138.58,-431.7C145.66,-423.3 154.28,-413.07 162.05,-403.86"/>
<polygon fill="grey" stroke="grey" stroke-width="2" points="164.81,-406.01 168.58,-396.1 159.46,-401.49 164.81,-406.01"/>
</g>
<!-- 8&#45;&gt;6 -->
<g id="edge10" class="edge">
<title>8&#45;&gt;6</title>
<path fill="none" stroke="grey" stroke-width="2" d="M176.08,-359.7C172.93,-351.81 169.12,-342.3 165.62,-333.55"/>
<polygon fill="grey" stroke="grey" stroke-width="2" points="168.81,-332.09 161.84,-324.1 162.31,-334.69 168.81,-332.09"/>
</g>
<!-- 9&#45;&gt;5 -->
<g id="edge6" class="edge">
<title>9&#45;&gt;5</title>
<path fill="none" stroke="grey" stroke-width="2" d="M151.79,-215.7C150.35,-207.98 148.63,-198.71 147.04,-190.11"/>
<polygon fill="grey" stroke="grey" stroke-width="2" points="150.44,-189.3 145.18,-180.1 143.56,-190.58 150.44,-189.3"/>
</g>
<!-- 10&#45;&gt;5 -->
<g id="edge7" class="edge">
<title>10&#45;&gt;5</title>
<path fill="none" stroke="grey" stroke-width="2" d="M249.26,-215.88C230.18,-206.47 206.32,-194.71 185.95,-184.67"/>
<polygon fill="grey" stroke="grey" stroke-width="2" points="187.39,-181.47 176.87,-180.19 184.29,-187.75 187.39,-181.47"/>
</g>
</g>
</svg>
