<?xml version="1.0" encoding="UTF-8" standalone="no"?>
<!DOCTYPE svg PUBLIC "-//W3C//DTD SVG 1.1//EN"
 "http://www.w3.org/Graphics/SVG/1.1/DTD/svg11.dtd">
<!-- Generated by graphviz version 2.49.0 (0)
 -->
<!-- Title: snakemake_dag Pages: 1 -->
<svg width="474pt" height="476pt"
 viewBox="0.00 0.00 474.00 476.00" xmlns="http://www.w3.org/2000/svg" xmlns:xlink="http://www.w3.org/1999/xlink">
<g id="graph0" class="graph" transform="scale(1 1) rotate(0) translate(4 472)">
<title>snakemake_dag</title>
<polygon fill="white" stroke="transparent" points="-4,4 -4,-472 470,-472 470,4 -4,4"/>
<!-- 0 -->
<g id="node1" class="node">
<title>0</title>
<path fill="none" stroke="#56d89a" stroke-width="2" d="M192,-36C192,-36 162,-36 162,-36 156,-36 150,-30 150,-24 150,-24 150,-12 150,-12 150,-6 156,0 162,0 162,0 192,0 192,0 198,0 204,-6 204,-12 204,-12 204,-24 204,-24 204,-30 198,-36 192,-36"/>
<text text-anchor="middle" x="177" y="-15.5" font-family="sans" font-size="10.00">all</text>
</g>
<!-- 1 -->
<g id="node2" class="node">
<title>1</title>
<path fill="none" stroke="#56d86b" stroke-width="2" d="M42,-252C42,-252 12,-252 12,-252 6,-252 0,-246 0,-240 0,-240 0,-228 0,-228 0,-222 6,-216 12,-216 12,-216 42,-216 42,-216 48,-216 54,-222 54,-228 54,-228 54,-240 54,-240 54,-246 48,-252 42,-252"/>
<text text-anchor="middle" x="27" y="-231.5" font-family="sans" font-size="10.00">multiqc</text>
</g>
<!-- 1&#45;&gt;0 -->
<g id="edge5" class="edge">
<title>1&#45;&gt;0</title>
<path fill="none" stroke="grey" stroke-width="2" d="M26.85,-215.89C27.44,-184.03 33.01,-114.93 68,-72 86.14,-49.73 115.93,-36.15 139.78,-28.31"/>
<polygon fill="grey" stroke="grey" stroke-width="2" points="141.06,-31.58 149.59,-25.3 139,-24.89 141.06,-31.58"/>
</g>
<!-- 2 -->
<g id="node3" class="node">
<title>2</title>
<path fill="none" stroke="#d88556" stroke-width="2" d="M65,-396C65,-396 35,-396 35,-396 29,-396 23,-390 23,-384 23,-384 23,-372 23,-372 23,-366 29,-360 35,-360 35,-360 65,-360 65,-360 71,-360 77,-366 77,-372 77,-372 77,-384 77,-384 77,-390 71,-396 65,-396"/>
<text text-anchor="middle" x="50" y="-375.5" font-family="sans" font-size="10.00">fastqc</text>
</g>
<!-- 2&#45;&gt;1 -->
<g id="edge9" class="edge">
<title>2&#45;&gt;1</title>
<path fill="none" stroke="grey" stroke-width="2" d="M47.23,-359.87C43.31,-335.67 36.1,-291.21 31.44,-262.39"/>
<polygon fill="grey" stroke="grey" stroke-width="2" points="34.84,-261.5 29.78,-252.19 27.93,-262.62 34.84,-261.5"/>
</g>
<!-- 3 -->
<g id="node4" class="node">
<title>3</title>
<path fill="none" stroke="#9fd856" stroke-width="2" d="M128,-468C128,-468 68,-468 68,-468 62,-468 56,-462 56,-456 56,-456 56,-444 56,-444 56,-438 62,-432 68,-432 68,-432 128,-432 128,-432 134,-432 140,-438 140,-444 140,-444 140,-456 140,-456 140,-462 134,-468 128,-468"/>
<text text-anchor="middle" x="98" y="-447.5" font-family="sans" font-size="10.00">download_data</text>
</g>
<!-- 3&#45;&gt;2 -->
<g id="edge10" class="edge">
<title>3&#45;&gt;2</title>
<path fill="none" stroke="grey" stroke-width="2" d="M86.13,-431.7C80.5,-423.47 73.65,-413.48 67.43,-404.42"/>
<polygon fill="grey" stroke="grey" stroke-width="2" points="70.27,-402.37 61.73,-396.1 64.5,-406.33 70.27,-402.37"/>
</g>
<!-- 4 -->
<g id="node5" class="node">
<title>4</title>
<path fill="none" stroke="#56b1d8" stroke-width="2" d="M194,-396C194,-396 114,-396 114,-396 108,-396 102,-390 102,-384 102,-384 102,-372 102,-372 102,-366 108,-360 114,-360 114,-360 194,-360 194,-360 200,-360 206,-366 206,-372 206,-372 206,-384 206,-384 206,-390 200,-396 194,-396"/>
<text text-anchor="middle" x="154" y="-375.5" font-family="sans" font-size="10.00">qiime2_import_data</text>
</g>
<!-- 3&#45;&gt;4 -->
<g id="edge11" class="edge">
<title>3&#45;&gt;4</title>
<path fill="none" stroke="grey" stroke-width="2" d="M111.84,-431.7C118.49,-423.39 126.58,-413.28 133.89,-404.14"/>
<polygon fill="grey" stroke="grey" stroke-width="2" points="136.8,-406.1 140.32,-396.1 131.34,-401.73 136.8,-406.1"/>
</g>
<!-- 4&#45;&gt;0 -->
<g id="edge7" class="edge">
<title>4&#45;&gt;0</title>
<path fill="none" stroke="grey" stroke-width="2" d="M131.6,-359.87C120.77,-350.43 108.52,-337.83 101,-324 81.68,-288.46 82,-275.45 82,-235 82,-235 82,-235 82,-161 82,-113.01 119.94,-68.96 147.87,-43.04"/>
<polygon fill="grey" stroke="grey" stroke-width="2" points="150.35,-45.52 155.44,-36.22 145.67,-40.31 150.35,-45.52"/>
</g>
<!-- 5 -->
<g id="node6" class="node">
<title>5</title>
<path fill="none" stroke="#56d8c9" stroke-width="2" d="M216,-324C216,-324 122,-324 122,-324 116,-324 110,-318 110,-312 110,-312 110,-300 110,-300 110,-294 116,-288 122,-288 122,-288 216,-288 216,-288 222,-288 228,-294 228,-300 228,-300 228,-312 228,-312 228,-318 222,-324 216,-324"/>
<text text-anchor="middle" x="169" y="-303.5" font-family="sans" font-size="10.00">qiime2_summarize_vis</text>
</g>
<!-- 4&#45;&gt;5 -->
<g id="edge12" class="edge">
<title>4&#45;&gt;5</title>
<path fill="none" stroke="grey" stroke-width="2" d="M157.71,-359.7C159.36,-351.98 161.35,-342.71 163.19,-334.11"/>
<polygon fill="grey" stroke="grey" stroke-width="2" points="166.66,-334.62 165.33,-324.1 159.82,-333.15 166.66,-334.62"/>
</g>
<!-- 6 -->
<g id="node7" class="node">
<title>6</title>
<path fill="none" stroke="#70d856" stroke-width="2" d="M290.5,-252C290.5,-252 199.5,-252 199.5,-252 193.5,-252 187.5,-246 187.5,-240 187.5,-240 187.5,-228 187.5,-228 187.5,-222 193.5,-216 199.5,-216 199.5,-216 290.5,-216 290.5,-216 296.5,-216 302.5,-222 302.5,-228 302.5,-228 302.5,-240 302.5,-240 302.5,-246 296.5,-252 290.5,-252"/>
<text text-anchor="middle" x="245" y="-231.5" font-family="sans" font-size="10.00">dada2_denoise_ASVs</text>
</g>
<!-- 4&#45;&gt;6 -->
<g id="edge14" class="edge">
<title>4&#45;&gt;6</title>
<path fill="none" stroke="grey" stroke-width="2" d="M195.97,-359.92C211.44,-351.46 227.5,-339.63 237,-324 248.18,-305.6 249.59,-281 248.54,-262.32"/>
<polygon fill="grey" stroke="grey" stroke-width="2" points="252,-261.78 247.69,-252.11 245.03,-262.36 252,-261.78"/>
</g>
<!-- 5&#45;&gt;0 -->
<g id="edge6" class="edge">
<title>5&#45;&gt;0</title>
<path fill="none" stroke="grey" stroke-width="2" d="M166.1,-287.91C160.02,-249.21 147.49,-151.99 160,-72 161.36,-63.31 163.9,-54.1 166.61,-45.84"/>
<polygon fill="grey" stroke="grey" stroke-width="2" points="169.94,-46.93 169.93,-36.33 163.33,-44.62 169.94,-46.93"/>
</g>
<!-- 5&#45;&gt;6 -->
<g id="edge13" class="edge">
<title>5&#45;&gt;6</title>
<path fill="none" stroke="grey" stroke-width="2" d="M187.79,-287.7C197.17,-279.05 208.68,-268.45 218.91,-259.03"/>
<polygon fill="grey" stroke="grey" stroke-width="2" points="221.45,-261.45 226.43,-252.1 216.7,-256.3 221.45,-261.45"/>
</g>
<!-- 6&#45;&gt;0 -->
<g id="edge4" class="edge">
<title>6&#45;&gt;0</title>
<path fill="none" stroke="grey" stroke-width="2" d="M211.64,-215.86C198.29,-207.09 184.36,-195.06 177,-180 155.97,-136.94 163.11,-79.35 170.12,-46"/>
<polygon fill="grey" stroke="grey" stroke-width="2" points="173.57,-46.6 172.35,-36.07 166.74,-45.06 173.57,-46.6"/>
</g>
<!-- 7 -->
<g id="node8" class="node">
<title>7</title>
<path fill="none" stroke="#d85656" stroke-width="2" d="M271.5,-180C271.5,-180 198.5,-180 198.5,-180 192.5,-180 186.5,-174 186.5,-168 186.5,-168 186.5,-156 186.5,-156 186.5,-150 192.5,-144 198.5,-144 198.5,-144 271.5,-144 271.5,-144 277.5,-144 283.5,-150 283.5,-156 283.5,-156 283.5,-168 283.5,-168 283.5,-174 277.5,-180 271.5,-180"/>
<text text-anchor="middle" x="235" y="-159.5" font-family="sans" font-size="10.00">qiime2_phylogeny</text>
</g>
<!-- 6&#45;&gt;7 -->
<g id="edge15" class="edge">
<title>6&#45;&gt;7</title>
<path fill="none" stroke="grey" stroke-width="2" d="M242.53,-215.7C241.43,-207.98 240.1,-198.71 238.87,-190.11"/>
<polygon fill="grey" stroke="grey" stroke-width="2" points="242.32,-189.51 237.44,-180.1 235.39,-190.5 242.32,-189.51"/>
</g>
<!-- 8 -->
<g id="node9" class="node">
<title>8</title>
<path fill="none" stroke="#5682d8" stroke-width="2" d="M452,-180C452,-180 352,-180 352,-180 346,-180 340,-174 340,-168 340,-168 340,-156 340,-156 340,-150 346,-144 352,-144 352,-144 452,-144 452,-144 458,-144 464,-150 464,-156 464,-156 464,-168 464,-168 464,-174 458,-180 452,-180"/>
<text text-anchor="middle" x="402" y="-159.5" font-family="sans" font-size="10.00">taxonomic_classification</text>
</g>
<!-- 6&#45;&gt;8 -->
<g id="edge16" class="edge">
<title>6&#45;&gt;8</title>
<path fill="none" stroke="grey" stroke-width="2" d="M283.41,-215.88C304.87,-206.31 331.8,-194.3 354.57,-184.15"/>
<polygon fill="grey" stroke="grey" stroke-width="2" points="356.01,-187.34 363.72,-180.07 353.16,-180.94 356.01,-187.34"/>
</g>
<!-- 9 -->
<g id="node10" class="node">
<title>9</title>
<path fill="none" stroke="#d8b456" stroke-width="2" d="M300,-108C300,-108 236,-108 236,-108 230,-108 224,-102 224,-96 224,-96 224,-84 224,-84 224,-78 230,-72 236,-72 236,-72 300,-72 300,-72 306,-72 312,-78 312,-84 312,-84 312,-96 312,-96 312,-102 306,-108 300,-108"/>
<text text-anchor="middle" x="268" y="-87.5" font-family="sans" font-size="10.00">R_AnalysisPrep</text>
</g>
<!-- 6&#45;&gt;9 -->
<g id="edge18" class="edge">
<title>6&#45;&gt;9</title>
<path fill="none" stroke="grey" stroke-width="2" d="M266.27,-215.7C276.11,-206.31 286.76,-193.8 292,-180 299.81,-159.42 292.3,-135.27 283.68,-117.32"/>
<polygon fill="grey" stroke="grey" stroke-width="2" points="286.58,-115.31 278.87,-108.05 280.37,-118.54 286.58,-115.31"/>
</g>
<!-- 7&#45;&gt;0 -->
<g id="edge1" class="edge">
<title>7&#45;&gt;0</title>
<path fill="none" stroke="grey" stroke-width="2" d="M228,-143.87C218.03,-119.46 199.64,-74.43 187.88,-45.64"/>
<polygon fill="grey" stroke="grey" stroke-width="2" points="191.04,-44.12 184.02,-36.19 184.56,-46.77 191.04,-44.12"/>
</g>
<!-- 7&#45;&gt;9 -->
<g id="edge17" class="edge">
<title>7&#45;&gt;9</title>
<path fill="none" stroke="grey" stroke-width="2" d="M243.16,-143.7C246.91,-135.73 251.45,-126.1 255.62,-117.26"/>
<polygon fill="grey" stroke="grey" stroke-width="2" points="258.84,-118.64 259.94,-108.1 252.51,-115.66 258.84,-118.64"/>
</g>
<!-- 8&#45;&gt;0 -->
<g id="edge8" class="edge">
<title>8&#45;&gt;0</title>
<path fill="none" stroke="grey" stroke-width="2" d="M388,-143.75C369.19,-120.92 336.34,-82.33 321,-72 287.94,-49.74 244.35,-35.4 213.82,-27.32"/>
<polygon fill="grey" stroke="grey" stroke-width="2" points="214.56,-23.9 204,-24.82 212.83,-30.68 214.56,-23.9"/>
</g>
<!-- 8&#45;&gt;9 -->
<g id="edge19" class="edge">
<title>8&#45;&gt;9</title>
<path fill="none" stroke="grey" stroke-width="2" d="M369.22,-143.88C351.37,-134.55 329.1,-122.92 310,-112.94"/>
<polygon fill="grey" stroke="grey" stroke-width="2" points="311.39,-109.72 300.91,-108.19 308.15,-115.92 311.39,-109.72"/>
</g>
<!-- 9&#45;&gt;0 -->
<g id="edge2" class="edge">
<title>9&#45;&gt;0</title>
<path fill="none" stroke="grey" stroke-width="2" d="M245.51,-71.7C234.04,-62.88 219.94,-52.03 207.52,-42.47"/>
<polygon fill="grey" stroke="grey" stroke-width="2" points="209.3,-39.43 199.24,-36.1 205.03,-44.98 209.3,-39.43"/>
</g>
<!-- 10 -->
<g id="node11" class="node">
<title>10</title>
<path fill="none" stroke="#ced856" stroke-width="2" d="M454,-108C454,-108 380,-108 380,-108 374,-108 368,-102 368,-96 368,-96 368,-84 368,-84 368,-78 374,-72 380,-72 380,-72 454,-72 454,-72 460,-72 466,-78 466,-84 466,-84 466,-96 466,-96 466,-102 460,-108 454,-108"/>
<text text-anchor="middle" x="417" y="-87.5" font-family="sans" font-size="10.00">phyloseq_analysis</text>
</g>
<!-- 10&#45;&gt;0 -->
<g id="edge3" class="edge">
<title>10&#45;&gt;0</title>
<path fill="none" stroke="grey" stroke-width="2" d="M367.85,-74.67C322.12,-61.33 254.99,-41.75 213.74,-29.72"/>
<polygon fill="grey" stroke="grey" stroke-width="2" points="214.67,-26.34 204.09,-26.9 212.71,-33.06 214.67,-26.34"/>
</g>
</g>
</svg>
